<svg xmlns="http://www.w3.org/2000/svg" xmlns:xlink="http://www.w3.org/1999/xlink" viewBox="0 0 512 512" width="64px"
  height="64px">
  <defs>
    <linearGradient id="wv_OYm3-_Cotd7DWQKyv6a" x1="96.077" x2="428.724" y1="2.169" y2="499.929"
      gradientUnits="userSpaceOnUse">
      <stop offset="0" stop-color="#e1e1e1" />
      <stop offset="1" stop-color="#6c6c6c" />
    </linearGradient>
    <linearGradient id="wv_OYm3-_Cotd7DWQKyv6b" x1="-3.051" x2="329.595" y1="68.416" y2="566.175"
      xlink:href="#wv_OYm3-_Cotd7DWQKyv6a" />
    <linearGradient id="wv_OYm3-_Cotd7DWQKyv6c" x1="82.643" x2="415.29" y1="11.147" y2="508.907"
      xlink:href="#wv_OYm3-_Cotd7DWQKyv6a" />
    <linearGradient id="wv_OYm3-_Cotd7DWQKyv6d" x1="89.367" x2="422.013" y1="6.654" y2="504.414"
      xlink:href="#wv_OYm3-_Cotd7DWQKyv6a" />
  </defs>
  <g data-name="8.Do Not Disturb">
    <path fill="url(#wv_OYm3-_Cotd7DWQKyv6a)"
      d="M457,255.8239A200.1762,200.1762,0,0,0,426.54,149.7521a17.8481,17.8481,0,0,0-13.1919-8.3,18.0286,18.0286,0,0,0-14.8794,5.1948l-251.83,251.83a18.0477,18.0477,0,0,0-5.1946,14.88A17.85,17.85,0,0,0,149.747,426.55,200.1545,200.1545,0,0,0,255.99,457h.1846C367.0029,456.9069,457.0927,366.66,457,255.8239ZM256.1648,445c-.02-.0224-.1155,0-.1744,0a188.1806,188.1806,0,0,1-99.8818-28.6245A5.8574,5.8574,0,0,1,153.3667,412a6.1081,6.1081,0,0,1,1.7568-5.0376l251.83-251.83a6.1023,6.1023,0,0,1,4.331-1.7974,6.2481,6.2481,0,0,1,.7066.04,5.8575,5.8575,0,0,1,4.3745,2.7407A188.1865,188.1865,0,0,1,445,255.8346C445.0869,360.0534,360.3759,444.9127,256.1648,445Z" />
    <path fill="url(#wv_OYm3-_Cotd7DWQKyv6b)"
      d="M37.0132,146.17a5.9974,5.9974,0,0,0,8.1162-2.4737c1.541-2.8911,3.1992-5.8413,4.93-8.768A6,6,0,1,0,39.73,128.8205c-1.8208,3.0791-3.5669,6.185-5.19,9.2324A6,6,0,0,0,37.0132,146.17Z" />
    <path fill="url(#wv_OYm3-_Cotd7DWQKyv6c)"
      d="M55,256.1745A200.1071,200.1071,0,0,0,85.4507,362.258a17.85,17.85,0,0,0,13.1928,8.3,18.3491,18.3491,0,0,0,2.083.1182,18.03,18.03,0,0,0,12.7954-5.313L365.3525,113.5319a18.0454,18.0454,0,0,0,5.1953-14.878,17.8514,17.8514,0,0,0-8.3017-13.1948A200.1114,200.1114,0,0,0,256.0114,55h-.1862A201.2249,201.2249,0,0,0,55,256.1745ZM255.8352,67h.0005A187.93,187.93,0,0,1,355.8828,95.633a5.8606,5.8606,0,0,1,2.7422,4.3764,6.1086,6.1086,0,0,1-1.7574,5.0371L105.0366,356.8781A6.1133,6.1133,0,0,1,100,358.6349a5.8563,5.8563,0,0,1-4.375-2.74A189.0461,189.0461,0,0,1,255.8352,67Z" />
    <path fill="url(#wv_OYm3-_Cotd7DWQKyv6d)"
      d="M256.0122,5.004h-.1714A250.87,250.87,0,0,0,139.865,33.5724,254.1735,254.1735,0,0,0,52.4,109.4616a6,6,0,0,0,9.7285,7.0254C107.082,54.24,179.5007,17.05,255.8484,17.004h.1613c131.6768,0,238.8775,107.0874,238.9947,238.7852.1171,131.7866-107.0015,239.0977-238.7854,239.2148h-.2156c-131.6873,0-238.8819-107.0737-238.999-238.7851a236.6019,236.6019,0,0,1,19.2431-94.0781,6,6,0,1,0-11.0263-4.7334A250.9657,250.9657,0,0,0,256.0005,507.004h.2292a250.9974,250.9974,0,0,0,177.1189-428.62A249.3369,249.3369,0,0,0,256.0122,5.004Z" />
  </g>
</svg>